<?xml version="1.0" encoding="UTF-8" standalone="no"?>
<!-- Created with Inkscape (http://www.inkscape.org/) -->

<svg
   xmlns:dc="http://purl.org/dc/elements/1.1/"
   xmlns:cc="http://creativecommons.org/ns#"
   xmlns:rdf="http://www.w3.org/1999/02/22-rdf-syntax-ns#"
   xmlns:svg="http://www.w3.org/2000/svg"
   xmlns="http://www.w3.org/2000/svg"
   xmlns:sodipodi="http://sodipodi.sourceforge.net/DTD/sodipodi-0.dtd"
   xmlns:inkscape="http://www.inkscape.org/namespaces/inkscape"
   id="svg2"
   version="1.1"
   inkscape:version="0.91 r13725"
   width="180"
   height="180"
   viewBox="0 0 180 180"
   sodipodi:docname="icon.svg">
  <metadata
     id="metadata8">
    <rdf:RDF>
      <cc:Work
         rdf:about="">
        <dc:format>image/svg+xml</dc:format>
        <dc:type
           rdf:resource="http://purl.org/dc/dcmitype/StillImage" />
        <dc:title></dc:title>
      </cc:Work>
    </rdf:RDF>
  </metadata>
  <defs
     id="defs6" />
  <sodipodi:namedview
     pagecolor="#ffffff"
     bordercolor="#666666"
     borderopacity="1"
     objecttolerance="10"
     gridtolerance="10"
     guidetolerance="10"
     inkscape:pageopacity="0"
     inkscape:pageshadow="2"
     inkscape:window-width="1600"
     inkscape:window-height="851"
     id="namedview4"
     showgrid="false"
     fit-margin-top="0"
     fit-margin-left="0"
     fit-margin-right="0"
     fit-margin-bottom="0"
     inkscape:zoom="1.5526316"
     inkscape:cx="-71.510777"
     inkscape:cy="77.144088"
     inkscape:window-x="0"
     inkscape:window-y="25"
     inkscape:window-maximized="1"
     inkscape:current-layer="svg2" />
  <rect
     style="fill:#26282d;fill-opacity:1;stroke:#000000;stroke-width:1.15939116;stroke-opacity:1"
     id="rect3338"
     width="178.84061"
     height="178.84061"
     x="0.57969558"
     y="0.57969558"
     inkscape:export-xdpi="90"
     inkscape:export-ydpi="90" />
  <g
     id="g3368"
     transform="matrix(1.0567979,0,0,1.0567979,259.92684,20.422883)"
     inkscape:export-xdpi="90"
     inkscape:export-ydpi="90">
    <g
       id="text3340"
       style="font-style:normal;font-variant:normal;font-weight:bold;font-stretch:normal;font-size:51.66296387px;line-height:125%;font-family:'GFS Artemisia';-inkscape-font-specification:'GFS Artemisia Bold';letter-spacing:0px;word-spacing:0px;fill:#000000;fill-opacity:1;stroke:none;stroke-width:1px;stroke-linecap:butt;stroke-linejoin:miter;stroke-opacity:1">
      <path
         id="path3366"
         style="font-style:italic;font-variant:normal;font-weight:bold;font-stretch:normal;font-size:116.2416687px;font-family:'GFS Artemisia';-inkscape-font-specification:'GFS Artemisia Bold Italic';fill:#ffffff"
         d="m -131.25833,21.800183 c 0.11625,0 -71.25614,0 -71.48862,0 6.9745,13.832759 15.92511,29.757867 23.48081,43.358143 -4.53342,4.300941 -36.61612,32.663909 -41.26579,37.081094 0,0 72.30232,0.23248 72.41856,0 0,0 12.08913,-27.200552 12.20538,-27.084311 l -4.88215,0 c -1.51115,3.254767 -3.83598,8.601884 -7.90444,10.46175 -4.30094,1.976109 -12.78658,1.976109 -25.34068,1.859867 -12.43786,-0.116242 -17.66873,0.116242 -22.08592,0 2.90604,-2.441075 30.57156,-27.665517 34.05881,-30.920284 -3.83597,-6.9745 -10.11302,-18.249942 -15.3439,-29.525384 22.20216,-0.348725 28.94418,1.162417 31.50149,1.976109 2.90604,0.929933 6.50954,1.627383 8.02068,12.5541 l 4.30094,0 c 0.11624,-0.116242 1.97611,-19.761084 2.32483,-19.761084 z"
         inkscape:connector-curvature="0" />
    </g>
    <g
       transform="matrix(0.93511691,0,0,0.92060132,2.697917,0.42232651)"
       id="text3340-6"
       style="font-style:normal;font-variant:normal;font-weight:bold;font-stretch:normal;font-size:72.15253448px;line-height:125%;font-family:'GFS Artemisia';-inkscape-font-specification:'GFS Artemisia Bold';letter-spacing:0px;word-spacing:0px;fill:#000000;fill-opacity:1;stroke:none;stroke-width:1px;stroke-linecap:butt;stroke-linejoin:miter;stroke-opacity:1">
      <path
         inkscape:connector-curvature="0"
         id="path3363"
         style="font-style:italic;font-variant:normal;font-weight:bold;font-stretch:normal;font-size:162.34321594px;font-family:'GFS Artemisia';-inkscape-font-specification:'GFS Artemisia Bold Italic';fill:#ffffff"
         d="m -149.75468,19.147797 -20.13055,94.808443 c -3.08453,14.12385 -5.03264,18.34478 -8.44185,18.34478 -2.75984,0 -4.05858,-2.75984 -4.05858,-7.79248 -0.32469,-3.24686 -2.59749,-5.51967 -6.33139,-5.51967 -4.54561,0 -7.1431,2.27281 -7.79247,5.68202 -1.62343,8.44184 10.55231,12.98745 17.20838,12.98745 12.33808,0 22.89039,-6.81841 25.48788,-19.48118 6.65608,-31.169899 13.31215,-62.177453 20.29291,-94.970783 2.92217,-14.2862026 4.87029,-18.5071262 8.2795,-18.5071262 2.92218,0 4.05858,2.5974914 4.22092,7.6301312 0,3.409207 2.27281,5.519669 6.49373,5.519669 4.22093,0 6.65607,-2.110462 7.46779,-5.519669 1.62343,-7.9548176 -10.06528,-12.98745733 -16.72135,-12.98745733 -12.33809,0 -23.05274,6.16904223 -25.97492,19.80587233 z" />
    </g>
  </g>
</svg>
